<svg width="643" height="607" viewBox="0 0 643 607" fill="none" xmlns="http://www.w3.org/2000/svg">
<rect x="638" y="71" width="5" height="456" fill="black"/>
<path d="M7.64648 206.25L12.571 88.73C13.018 78.0618 19.1016 68.4353 28.5453 63.4527L148.809 0L7.64648 63.25L6.63625 63.7867C3.78328 65.3025 2 68.2693 2 71.5V71.5L7.64648 206.25Z" fill="black"/>
<path d="M5.64648 400L10.571 517.52C11.018 528.188 17.1016 537.815 26.5453 542.797L146.809 606.25L5.64648 543L4.63625 542.463C1.78328 540.947 0 537.981 0 534.75V534.75L5.64648 400Z" fill="black"/>
<rect x="3" y="66" width="5" height="456" fill="black"/>
<path d="M637.162 400L632.238 517.52C631.791 528.188 625.707 537.815 616.263 542.797L496 606.25L637.162 543L638.172 542.463C641.025 540.947 642.809 537.981 642.809 534.75V534.75L637.162 400Z" fill="black"/>
<path d="M637.162 206.25L632.238 88.73C631.791 78.0618 625.707 68.4353 616.263 63.4527L496 0L637.162 63.25L638.172 63.7867C641.025 65.3025 642.809 68.2693 642.809 71.5V71.5L637.162 206.25Z" fill="black"/>
</svg>
